# xmcd
#
# Track frame offsets:
#	150
#	18622
#	33684
#	45651
#	57394
#	70146
#	88864
#	102460
#	114566
#	130797
#	145478
#	155662
#	169713
#	181026
#	191597
#	202744
#	219440
#	231718
#
# Disc length: 3247 seconds
#
# Revision: 1
# Processed by: cddbd v1.5.2PL0 Copyright (c) Steve Scherf et al.
# Submitted via: audiograbber 1.83.01
#
DISCID=0b0cad12
DTITLE=VARIOUS  - STC VOL 10
DYEAR=1900
DGENRE=COUNTRY
TTITLE0=Kenny Rogers - Dolly Parton - Islands In The Stream 
TTITLE1=Mary Chapin Carpenter  - Down At The Twist and Shout  
TTITLE2=Tammy Wynette  - Stand By Your Man 
TTITLE3=Johnny Cash  - Ring Of Fire 
TTITLE4=Patsy Cline  - I Fall To Pieces 
TTITLE5=Jimmy Buffet  - Margaritaville 
TTITLE6=Dixie Chicks  - I Can Love You Better
TTITLE7=Freddy Fender  - Wasted Days And Wasted Nights
TTITLE8=Brooks and Dunn  - How Long Gone 
TTITLE9=Bellamy Brothers  - Let Your Love Flow 
TTITLE10=Good Brothers  - Fox On The Run 
TTITLE11=Marty Stuart  - Tempted 
TTITLE12=Bryan White  - So Much For Pretending 
TTITLE13=Willie Nelson  - Blue Eyes Crying In The Rain 
TTITLE14=Sonny James  - Young Love 
TTITLE15=Travis Tritt  - Tell Me I Was Dreaming 
TTITLE16=Faith Hill  - Wild One
TTITLE17=Alan Jackson  - Little Bitty 
EXTD=
EXTT0=
EXTT1=
EXTT2=
EXTT3=
EXTT4=
EXTT5=
EXTT6=
EXTT7=
EXTT8=
EXTT9=
EXTT10=
EXTT11=
EXTT12=
EXTT13=
EXTT14=
EXTT15=
EXTT16=
EXTT17=
PLAYORDER=
